<?xml version="1.0" encoding="utf-8"?><svg viewBox="0 0 329 329" xmlns="http://www.w3.org/2000/svg" xmlns:xlink="http://www.w3.org/1999/xlink"><style>:root>svg{display:none}:root>svg:target{display:block}</style><svg viewBox="0 0 26.1 20" id="arrow-left" xmlns="http://www.w3.org/2000/svg"><path d="M.1 9.7v-.1c0-.1.1-.2.2-.3l9-9c.4-.4 1-.4 1.4 0s.4 1 0 1.4L3.4 9H25c.5 0 1 .5 1 1s-.5 1-1 1H3.4l7.3 7.3c.4.4.4 1 0 1.4-.2.2-.4.3-.7.3-.3 0-.5-.1-.7-.3l-9-9c-.2-.2-.3-.4-.3-.7 0-.1 0-.2.1-.3z"/></svg><svg viewBox="0 0 26.1 20" id="arrow-right" xmlns="http://www.w3.org/2000/svg"><path d="M26 10c0 .3-.1.5-.3.7l-9 9c-.2.2-.4.3-.7.3-.3 0-.5-.1-.7-.3-.4-.4-.4-1 0-1.4l7.3-7.3H1c-.5 0-1-.5-1-1s.5-1 1-1h21.6l-7.3-7.3c-.4-.4-.4-1 0-1.4.4-.4 1-.4 1.4 0l9 9c.1.1.2.2.2.3v.1c.1.1.1.2.1.3z"/></svg><svg viewBox="0 0 329.269 329" id="close" xmlns="http://www.w3.org/2000/svg"><path d="M194.8 164.77L323.013 36.555c8.343-8.34 8.343-21.825 0-30.164-8.34-8.34-21.825-8.34-30.164 0L164.633 134.605 36.422 6.391c-8.344-8.34-21.824-8.34-30.164 0-8.344 8.34-8.344 21.824 0 30.164l128.21 128.215L6.259 292.984c-8.344 8.34-8.344 21.825 0 30.164a21.266 21.266 0 0015.082 6.25c5.46 0 10.922-2.09 15.082-6.25l128.21-128.214 128.216 128.214a21.273 21.273 0 0015.082 6.25c5.46 0 10.922-2.09 15.082-6.25 8.343-8.34 8.343-21.824 0-30.164zm0 0"/></svg><svg viewBox="0 0 264 88" id="default-skin" xmlns="http://www.w3.org/2000/svg"><g fill="none" fill-rule="evenodd"><path d="M67.002 59.5v3.768c-6.307.84-9.184 5.75-10.002 9.732 2.22-2.83 5.564-5.098 10.002-5.098V71.5L73 65.585 67.002 59.5zM13 29v-5h2v3h3v2h-5zm0-14h5v2h-3v3h-2v-5zm18 0v5h-2v-3h-3v-2h5zm0 14h-5v-2h3v-3h2v5zM62 24v5h-2v-3h-3v-2h5zm0-4h-5v-2h3v-3h2v5zm8 0v-5h2v3h3v2h-5zm0 4h5v2h-3v3h-2v-5zM20.586 66l-5.656-5.656 1.414-1.414L22 64.586l5.656-5.656 1.414 1.414L23.414 66l5.656 5.656-1.414 1.414L22 67.414l-5.656 5.656-1.414-1.414L20.586 66zM111.785 65.03L110 63.5l3-3.5h-10v-2h10l-3-3.5 1.785-1.468L117 59l-5.215 6.03zM152.215 65.03L154 63.5l-3-3.5h10v-2h-10l3-3.5-1.785-1.468L147 59l5.215 6.03zM160.957 28.543l-3.25-3.25-1.413 1.414 3.25 3.25z" fill="#fff"/><path d="M152.5 27a5.5 5.5 0 100-11 5.5 5.5 0 100 11z" stroke="#fff" stroke-width="1.5"/><path fill="#fff" d="M150 21h5v1h-5z"/><g><path d="M116.957 28.543l-1.414 1.414-3.25-3.25 1.414-1.414 3.25 3.25z" fill="#fff"/><path d="M108.5 27a5.5 5.5 0 100-11 5.5 5.5 0 100 11z" stroke="#fff" stroke-width="1.5"/><path fill="#fff" d="M106 21h5v1h-5z"/><path fill="#fff" d="M109.043 19.008l-.085 5-1-.017.085-5z"/></g></g></svg><svg data-name="Layer 1" viewBox="0 0 16.667 26" id="facebook" xmlns="http://www.w3.org/2000/svg"><path d="M10.333 26H5a1 1 0 01-1-1v-8.333H1a1 1 0 01-1-1v-5.334a1 1 0 011-1h3V7.666c0-2.048.797-3.973 2.246-5.42A7.613 7.613 0 0111.667 0h4a1 1 0 011 1v5.333a1 1 0 01-1 1h-4a.334.334 0 00-.334.333v1.667h4.334a1 1 0 01.97 1.243l-1.334 5.333a1 1 0 01-.97.758h-3V25a1 1 0 01-1 1zM6 24h3.333v-8.333a1 1 0 011-1h3.22l.833-3.334h-4.053a1 1 0 01-1-1V7.667c0-.623.242-1.209.683-1.65a2.35 2.35 0 011.651-.683h3V2h-3c-1.515 0-2.937.59-4.007 1.66A5.628 5.628 0 006 7.667v2.667a1 1 0 01-1 1H2v3.333h3a1 1 0 011 1V24z"/></svg><svg data-name="Layer 1" viewBox="0 0 23.333 23.333" id="in" xmlns="http://www.w3.org/2000/svg"><path d="M19.667 23.333h-16A3.67 3.67 0 010 19.667v-16A3.671 3.671 0 013.667 0h16a3.67 3.67 0 013.666 3.667v16a3.67 3.67 0 01-3.666 3.666zM3.667 2C2.746 2 2 2.748 2 3.667v16c0 .919.748 1.666 1.666 1.666h16.001c.919 0 1.666-.747 1.666-1.666v-16c0-.92-.747-1.667-1.666-1.667h-16z"/><path d="M6.336 18.003a1 1 0 01-1-1v-6.667a1 1 0 012 0v6.667a1 1 0 01-1 1zM6.336 7.35c-.552 0-1-.449-1-1s.448-1.007 1-1.007 1 .44 1 .993v.013a1 1 0 01-1 1zM11.668 18.003a1 1 0 01-1-1v-6.667a1 1 0 012 0v6.667a1 1 0 01-1 1z"/><path d="M17.001 18.003a1 1 0 01-1-1v-4c0-.446-.173-.864-.487-1.179-.632-.63-1.73-.63-2.358 0a1.653 1.653 0 00-.488 1.179 1 1 0 11-2 0c0-.98.381-1.9 1.074-2.593 1.384-1.385 3.798-1.386 5.186 0A3.643 3.643 0 0118 13.003v4a1 1 0 01-1 1z"/></svg><svg data-name="Layer 1" viewBox="0 0 23.333 23.333" id="inst" xmlns="http://www.w3.org/2000/svg"><path d="M17 23.333H6.334A6.34 6.34 0 010 17V6.334A6.34 6.34 0 016.333 0H17a6.34 6.34 0 016.333 6.333V17A6.34 6.34 0 0117 23.333zM6.334 2A4.338 4.338 0 002 6.333V17a4.338 4.338 0 004.334 4.333H17A4.337 4.337 0 0021.333 17V6.334A4.338 4.338 0 0017 2H6.334z"/><path d="M11.668 16.668c-2.757 0-5-2.243-5-5s2.243-5 5-5 5 2.243 5 5-2.243 5-5 5zm0-8c-1.654 0-3 1.346-3 3s1.346 3 3 3 3-1.346 3-3-1.346-3-3-3z"/></svg><svg viewBox="0 0 24 20" id="like" xmlns="http://www.w3.org/2000/svg"><path d="M12.112 2.25C19.864-5.503 32.69 8.346 12.033 20-8.42 8.346 4.367-5.503 12.112 2.25z"/></svg><svg viewBox="0 0 95.4 93.9" id="loop" xmlns="http://www.w3.org/2000/svg"><path d="M.2 36c.2-1.6.4-3.2.7-4.7 1.3-7 4.4-13.2 9.2-18.5C15.7 6.6 22.6 2.6 30.8.9 40.5-1 49.6.5 58 5.5c9.6 5.8 15.7 14.2 18 25.1 2 9.3.5 18.2-4.1 26.6-.9 1.6-.9 1.6.4 2.9l20.1 20.1c2.2 2.2 3.1 4.7 2.3 7.7-1.5 5.7-8.6 7.8-13.1 3.2-3.8-3.9-7.6-7.6-11.5-11.5l-9.2-9.2-.5-.5c-2.4 1.2-4.6 2.6-7 3.6-10.3 4.3-20.7 4.2-30.9-.4C14.9 69.8 9.1 64.3 5 57 2.4 52.3.8 47.3.4 41.9c0-.3-.1-.6-.2-.9v-5zm12.4 2.5c0 14.3 11.7 25.9 26 25.9 14.3-.1 25.8-11.6 25.9-25.9 0-14.2-11.7-25.9-25.9-25.9-14.4 0-26.1 11.6-26 25.9z"/></svg><svg data-name="Layer 1" viewBox="0 0 19.334 23.334" id="melody" xmlns="http://www.w3.org/2000/svg"><path d="M6.339 23.334c-.414 0-.829-.041-1.24-.123a6.308 6.308 0 01-3.243-1.732 6.318 6.318 0 01-1.734-3.245 6.313 6.313 0 01.36-3.658 6.313 6.313 0 012.333-2.842 6.318 6.318 0 013.52-1.068 1 1 0 010 2c-.86 0-1.693.253-2.409.731-.714.478-1.266 1.15-1.596 1.945s-.414 1.66-.246 2.503a4.318 4.318 0 001.186 2.22 4.33 4.33 0 006.667-.657c.478-.717.73-1.549.73-2.408V1a1 1 0 012 0c0 1.514.59 2.937 1.66 4.007a5.705 5.705 0 004.007 1.66 1 1 0 110 2 7.614 7.614 0 01-5.666-2.502V17c0 1.256-.37 2.473-1.068 3.519a6.321 6.321 0 01-5.261 2.815z"/></svg><svg viewBox="0 0 19.8 20.5" id="phone-call" xmlns="http://www.w3.org/2000/svg"><path d="M12.8 20.5c-.3 0-.6-.1-.8-.1-1.1-.2-2.2-.7-3.2-1.3-1.6-.9-2.9-2.2-4.1-3.5-1.2-1.4-2.4-2.8-3.3-4.4C.8 10 .3 8.7.1 7.4c-.2-1.5 0-3 .7-4.3.4-.7.9-1.3 1.6-1.8.3-.4.6-.7.9-.9.7-.5 1.4-.5 1.9.1.3.3.6.7.9 1.1.5.7 1 1.5 1.3 2.3.3.9.2 1.7-.5 2.3-.3.4-.7.7-1.1 1-.8.6-1 1.3-.6 2.2.2.9.8 1.6 1.3 2.3.7.9 1.5 1.8 2.4 2.5.5.4 1 .8 1.7.9.6.1 1 0 1.5-.4.4-.4.8-.8 1.3-1.2.7-.6 1.5-.6 2.3-.2.3.1.5.3.8.5.8.7 1.7 1.3 2.3 2.2.5.7.5 1.4-.2 2-.6.6-1.2 1.2-2 1.6-.8.4-1.6.7-2.5.8h-.2c-.4.1-.7.1-1.1.1z"/></svg><svg viewBox="0 0 13.9 7.9" id="short-arrow-bottom" xmlns="http://www.w3.org/2000/svg"><path d="M7 7.7L.6 1.3C.4 1.1.4.8.6.6s.5-.2.7 0L7 6.3 12.6.7c.2-.2.5-.2.7 0s.2.5 0 .7L7 7.7z"/></svg><svg viewBox="0 0 7.3 13" id="short-arrow-left" xmlns="http://www.w3.org/2000/svg"><path d="M0 6.6L6.4.2c.2-.2.5-.2.7-.1.2.2.2.5 0 .7L1.4 6.6 7 12.2c.2.2.2.5 0 .7s-.5.2-.7 0L0 6.6z"/></svg><svg viewBox="0 0 7.3 13" id="short-arrow-right" xmlns="http://www.w3.org/2000/svg"><path d="M7.3 6.4L.9 12.8c-.2.2-.5.2-.7 0-.2-.2-.2-.5 0-.7l5.7-5.7L.3.8C.1.6.1.3.3.1s.5-.1.7 0l6.3 6.3z"/></svg><svg data-name="Layer 1" viewBox="0 0 26 23.333" id="telegram" xmlns="http://www.w3.org/2000/svg"><path d="M19.667 23.333a.999.999 0 01-.707-.293l-5.852-5.85L9.8 21.6a1 1 0 01-1.749-.283l-2.535-7.608-4.963-2.48A1.001 1.001 0 01.638 9.4l24-9.333a1 1 0 011.332 1.175l-5.333 21.332a1 1 0 01-.97.758zm-6.586-9l6.044 6.044 4.437-17.745-20.097 7.816 3.316 1.658a1 1 0 01.501.578l2.063 6.19 2.335-3.113-.72-.72a1 1 0 010-1.415l5.333-5.333a1 1 0 111.414 1.414l-4.626 4.626z"/></svg><svg data-name="Layer 1" viewBox="0 0 26 20.667" id="youtube" xmlns="http://www.w3.org/2000/svg"><path d="M19.667 20.667H6.333A6.341 6.341 0 010 14.333v-8A6.34 6.34 0 016.333 0h13.334A6.34 6.34 0 0126 6.333v8a6.34 6.34 0 01-6.333 6.334zM6.333 2A4.338 4.338 0 002 6.333v8a4.339 4.339 0 004.334 4.334h13.333A4.338 4.338 0 0024 14.333v-8A4.338 4.338 0 0019.667 2H6.333z"/><path d="M10.332 15.332a1 1 0 01-1-1v-8a1 1 0 011.515-.857l6.667 4a1 1 0 010 1.714l-6.667 4a1.002 1.002 0 01-.515.143zm1-7.234v4.467l3.724-2.233-3.724-2.234z"/></svg></svg>