<svg data-name="Layer 1" xmlns="http://www.w3.org/2000/svg" viewBox="0 0 416.326 323.271"><path d="M416.326 51.75c-2.1 9.8-8.4 16.9-15.3 23.8-80 79.8-159.9 159.7-239.7 239.7-6.3 6.3-13.5 9.8-22.3 7.1-3.6-1.1-7.3-3.2-10-5.9-39.7-39.5-79.4-79.1-119-118.9-13.5-13.6-13.3-32.7.2-46.4l13.5-13.5c13.7-13.5 32.8-13.5 46.4 0 23.7 23.6 47.4 47.3 71 71 1 1 1.6 2.5 3.1 4.8 1.9-2.6 2.7-4 3.9-5.2 65.5-65.6 131-131.1 196.6-196.6 15.5-15.5 33.9-15.5 49.3-.2 2.2 2.2 4.3 4.5 6.6 6.6 7.3 6.6 13.5 14 15.7 24v9.7Z" style="fill:#29abe2"/></svg>