<svg data-name="Layer 1" xmlns="http://www.w3.org/2000/svg" viewBox="0 0 384 379.764"><path d="M0 350.411V339.91c2.237-11.642 9.745-19.756 17.82-27.78 39.81-39.555 79.416-79.32 119.129-118.975 1.044-1.043 2.487-1.687 3.893-2.616-1.816-1.9-2.728-2.893-3.68-3.845-41.534-41.546-83.083-83.078-124.6-124.641C3.376 52.857.06 41.649 2.707 29.062c2.943-14 11.62-23.407 25.348-27.415 13.733-4.01 25.939-.64 36.123 9.479 41.23 40.965 82.438 81.952 123.615 122.971 1.296 1.292 2.16 3.018 3.302 4.651 1.93-1.827 2.847-2.653 3.72-3.525 28.724-28.724 57.433-57.464 86.172-86.175 13.262-13.25 26.167-26.896 39.989-39.537C335.279-3.57 357.918-1.73 370.96 12.545c13.214 14.463 12.764 36.314-1.039 50.12-41.094 41.103-82.184 82.21-123.317 123.274-1.037 1.036-2.548 1.598-4.524 2.797 2.351 1.939 3.483 2.73 4.449 3.689 39.899 39.645 79.708 79.38 119.732 118.9 8.118 8.016 15.562 16.169 17.739 27.835v9.751c-.318 1.19-.637 2.38-.953 3.571-3.69 13.89-12.274 23.235-26.407 26.186-14.665 3.064-27.839-.177-38.832-11.225-40.894-41.094-81.947-82.03-122.906-123.059-1.039-1.04-1.679-2.48-2.505-3.734l-1.685.077c-.852 1.243-1.533 2.657-2.58 3.705-40.696 40.762-81.542 81.375-122.067 122.307-9.428 9.522-20.289 13.521-33.366 12.843-15.813-.82-27.92-10.672-31.726-26.044C.71 352.48.327 351.453 0 350.41Z" style="fill:#fff"/></svg>