<svg data-name="Layer 1" xmlns="http://www.w3.org/2000/svg" viewBox="0 0 2768.687 544.789"><path d="M79.098 540.707V336.585l-77.062 77.43-1.677-1.165c-.116-1.387-.333-2.774-.334-4.161-.018-31.336-.088-62.673.13-94.008.018-2.606 1.356-5.861 3.194-7.703 97.37-97.572 194.864-195.02 292.323-292.503 4.348-4.35 8.49-8.905 13.784-14.475 4.015 4.503 7.348 8.636 11.08 12.37 83.2 83.214 166.446 166.382 249.674 249.568 15.205 15.198 30.404 30.403 45.482 45.728 1.351 1.374 2.52 3.65 2.53 5.514.152 32.502.11 65.005.098 97.508 0 .622-.159 1.243-.284 2.16l-76.803-77.258-1.668.895v205.1H390.076c1.51-1.664 2.497-2.85 3.584-3.937 22.972-22.992 45.915-46.013 68.993-68.899 2.591-2.57 3.545-5.132 3.539-8.74-.106-63.004-.164-126.009.047-189.012.022-6.47-1.764-11.051-6.423-15.675-48.616-48.26-96.994-96.76-145.443-145.187-1.526-1.525-3.116-2.985-5.117-4.895-4.132 4.035-8.185 7.912-12.15 11.876-45.376 45.37-90.757 90.736-136.027 136.212-1.538 1.546-2.721 4.23-2.733 6.392-.176 31.5-.123 63.003-.125 94.505v4.102l150.677-150.864c6.491 6.611 12.258 12.568 18.116 18.434 19.078 19.11 38.246 38.13 57.19 57.37 1.724 1.752 2.946 4.839 2.955 7.31.173 48.504.096 97.008.204 145.512.008 3.462-1.051 5.855-3.48 8.274-31.528 31.407-62.935 62.934-94.479 94.324-1.596 1.588-4.156 3.122-6.276 3.134-32.338.196-64.678.136-97.017.12-.782 0-1.564-.189-3.166-.395 1.73-1.867 2.978-3.305 4.32-4.648 38.775-38.781 77.532-77.58 116.39-116.277 3.011-2.997 4.535-5.948 4.51-10.36-.175-31.167-.068-62.336-.06-93.504 0-.774-.103-1.547-.181-2.645L80.544 541.56l-1.446-.853Z" style="fill:#29abe2"/><path d="M878.023 539.45H732.24V251.99h137.57c24.364 0 44.761 7.393 61.188 22.176 16.426 14.239 24.64 32.443 24.64 54.617 0 24.095-10.132 43.806-30.389 59.135 13.41 7.122 23.952 16.907 31.62 29.362 7.661 12.46 11.5 26.077 11.5 40.86 0 23.273-8.625 42.709-25.873 58.313-17.523 15.336-39.012 22.997-64.473 22.997ZM869.81 294.7h-91.577v74.739h91.577c10.947 0 19.981-3.555 27.103-10.677 7.116-7.116 10.678-16.016 10.678-26.693 0-10.677-3.562-19.57-10.678-26.693-7.122-7.116-16.156-10.677-27.103-10.677Zm8.213 117.447h-99.79v84.595h99.79c12.044 0 22.175-4.036 30.389-12.114 8.213-8.072 12.32-18.134 12.32-30.183 0-12.044-4.107-22.105-12.32-30.184-8.214-8.071-18.345-12.114-30.389-12.114Zm176.583 127.303h-42.708V231.458h42.708V539.45Zm50.51-78.845V325.909h42.71v122.787c0 15.604 5.196 28.886 15.604 39.833 10.946 10.408 24.087 15.605 39.422 15.605 16.15 0 29.837-5.339 41.066-16.016 10.947-10.676 16.427-23.953 16.427-39.834V325.91h42.708v213.54h-42.708v-30.388c-16.427 23.818-39.7 35.727-69.812 35.727-24.915 0-45.313-7.937-61.187-23.818-16.158-16.15-24.23-36.273-24.23-60.366Zm460.758-12.321h-177.403c3.285 16.703 11.427 30.325 24.433 40.86 13 10.544 28.4 15.811 46.2 15.811 24.087 0 42.977-8.893 56.67-26.692l41.887 12.73c-9.855 16.703-23.478 29.843-40.86 39.423-17.389 9.58-36.62 14.373-57.698 14.373-32.852 0-60.096-10.677-81.72-32.031-21.907-21.354-32.853-48.047-32.853-80.078 0-31.756 10.536-58.448 31.62-80.078 21.355-21.355 47.907-32.031 79.668-32.031 31.755 0 58.037 10.676 78.846 32.03 21.354 21.355 32.031 48.048 32.031 80.079 0 1.097-.275 6.3-.821 15.604ZM1388.881 414.2h133.874c-3.837-15.875-12.05-28.81-24.639-38.807-12.596-9.99-27.103-14.988-43.53-14.988-15.605 0-29.503 4.998-41.682 14.988-12.184 9.997-20.192 22.932-24.023 38.807Zm215.595 125.25V231.458h42.708V357.12c16.15-24.364 39.968-36.548 71.454-36.548 25.185 0 45.852 7.943 62.01 23.818 16.425 16.156 24.638 36.138 24.638 59.955V539.45h-42.708V416.664c0-16.15-5.339-29.292-16.016-39.423-10.676-10.677-24.093-16.015-40.244-16.015-16.702 0-30.8 5.338-42.298 16.015-11.228 10.677-16.836 23.96-16.836 39.833V539.45h-42.708Zm353.986 5.34c-32.031 0-58.724-10.678-80.078-32.032-21.355-21.354-32.032-48.047-32.032-80.078s10.677-58.724 32.032-80.078 48.047-32.031 80.078-32.031 58.723 10.676 80.078 32.03c21.623 21.355 32.441 48.048 32.441 80.079s-10.818 58.724-32.441 80.078c-21.355 21.354-48.047 32.031-80.078 32.031Zm0-42.71c19.71 0 35.861-6.57 48.457-19.71 13.141-13.412 19.712-29.98 19.712-49.69s-6.57-36.138-19.712-49.28c-12.596-13.41-28.746-20.121-48.457-20.121-19.166 0-35.317 6.711-48.458 20.122-12.871 13.417-19.3 29.843-19.3 49.279 0 19.441 6.429 36.003 19.3 49.69 13.141 13.14 29.292 19.71 48.458 19.71Zm153.585-41.475V325.909h42.709v122.787c0 15.604 5.197 28.886 15.604 39.833 10.947 10.408 24.088 15.605 39.423 15.605 16.15 0 29.837-5.339 41.066-16.016 10.947-10.676 16.426-23.953 16.426-39.834V325.91h42.708v213.54h-42.708v-30.388c-16.426 23.818-39.699 35.727-69.811 35.727-24.915 0-45.314-7.937-61.188-23.818-16.157-16.15-24.23-36.273-24.23-60.366Zm400.39-85.827-40.244 6.98c-4.927-15.874-18.89-23.817-41.887-23.817-10.408 0-18.89 2.052-25.46 6.159-6.572 4.107-9.857 9.721-9.857 16.837 0 9.31 6.84 16.426 20.533 21.354l48.047 16.426c18.338 6.847 31.685 15.194 40.04 25.05 8.347 9.856 12.525 22.04 12.525 36.549 0 20.533-7.533 36.414-22.587 47.636-15.06 11.229-34.905 16.837-59.545 16.837-24.094 0-43.671-5.274-58.724-15.81-15.06-10.536-24.094-25.115-27.103-43.736l40.244-6.159c1.912 8.488 6.981 15.335 15.194 20.532 8.213 5.205 18.614 7.803 31.21 7.803 11.768 0 21.418-2.322 28.951-6.981 7.527-4.652 11.293-10.947 11.293-18.89 0-10.126-8.624-18.339-25.87-24.64l-47.637-16.015c-16.703-5.75-28.817-13.14-36.343-22.176-7.533-9.034-11.293-20.532-11.293-34.494 0-20.533 7.25-36.274 21.764-47.226 14.508-10.947 33.809-16.427 57.903-16.427 21.624 0 39.424 4.865 53.385 14.579 13.963 9.721 22.446 22.932 25.461 39.629Zm255.429 73.506h-177.403c3.285 16.703 11.428 30.325 24.433 40.86 13 10.544 28.4 15.811 46.2 15.811 24.088 0 42.977-8.893 56.67-26.692l41.887 12.73c-9.855 16.703-23.478 29.843-40.86 39.423-17.389 9.58-36.62 14.373-57.697 14.373-32.853 0-60.097-10.677-81.721-32.031-21.906-21.354-32.853-48.047-32.853-80.078 0-31.756 10.537-58.448 31.62-80.078 21.355-21.355 47.907-32.031 79.668-32.031 31.755 0 58.038 10.676 78.846 32.03 21.355 21.355 32.031 48.048 32.031 80.079 0 1.097-.275 6.3-.82 15.604ZM2590.873 414.2h133.874c-3.837-15.875-12.05-28.81-24.639-38.807-12.595-9.99-27.103-14.988-43.53-14.988-15.604 0-29.503 4.998-41.682 14.988-12.184 9.997-20.192 22.932-24.023 38.807Z" style="fill:#fff"/></svg>